# xmcd CD database file
#
# Track frame offsets:
#	150
#	16087
#	32377
#	49554
#	65584
#	80684
#	95681
#	110349
#	123036
#	140799
#	156667
#	171709
#
# Disc length: 2561 seconds
#
# Revision: 0
# Processed by: cddbd v1.5.1PL2 Copyright (c) Steve Scherf et al.
# Submitted via: CDex 1.50beta8
#
DISCID=a209ff0c
DTITLE=ドライヴ - ボーダーブルース
DYEAR=1900
DGENRE=Folk
TTITLE0=ボーダーブルース
TTITLE1=おまえを失いたくない
TTITLE2=アスファルト
TTITLE3=夕方のサイレン
TTITLE4=ララバイ
TTITLE5=次の歌が聞こえない
TTITLE6=河の流れを見つめて
TTITLE7=ワンモアトラベリン
TTITLE8=小さな橋
TTITLE9=ひとつを生きる
TTITLE10=それでいいってわけじゃない
TTITLE11=ヘリコプタージョー
EXTD=
EXTT0=
EXTT1=
EXTT2=
EXTT3=
EXTT4=
EXTT5=
EXTT6=
EXTT7=
EXTT8=
EXTT9=
EXTT10=
EXTT11=
PLAYORDER=
